<svg width="105" height="90" viewBox="0 0 105 90" fill="none" xmlns="http://www.w3.org/2000/svg">
<path d="M69.1073 38.2277H59.3353V28.4557H49.4153V38.2277H39.6433V48.1477H49.4153V57.9197H59.3353V48.1477H69.1073V38.2277Z" fill="url(#paint0_linear_1_28)"/>
<path opacity="0.39" d="M64.3003 48.1477H69.1063V38.2277H59.3343V28.4567H49.4143V32.6917C52.5063 39.2117 58.0313 44.4207 64.3003 48.1477Z" fill="url(#paint1_linear_1_28)"/>
<path d="M67.4953 64.8907C65.2743 65.9767 54.4923 64.8907 54.3753 66.1797C54.0373 69.9017 61.3843 71.1737 63.3683 71.5767C71.6303 73.2547 78.2163 68.3477 87.8703 59.2687C97.8363 49.8967 105.478 35.8937 104.591 23.2657C103.341 5.45971 87.3493 -3.59229 73.1183 1.33071C63.8033 4.55371 58.2253 9.77573 55.4963 12.9747C54.4063 14.2517 52.4483 14.2517 51.3593 12.9747C48.6313 9.77573 43.0523 4.55271 33.7373 1.33071C19.5073 -3.59229 3.63432 5.93873 0.592315 22.7637C-3.07368 43.0357 10.5443 66.3547 34.0503 80.8657C39.9293 84.4947 57.8663 91.0567 66.9083 88.3987C72.8093 86.6647 87.7613 74.8487 86.1303 73.2247C82.0293 69.1407 72.2493 79.3707 64.9183 78.8717C58.0453 78.4027 53.5163 77.1537 51.1733 73.7177C47.3663 68.1337 48.1423 60.8027 46.2983 61.4197C41.8643 59.9367 44.8653 71.3177 41.1073 69.0487C25.2333 59.4667 15.9943 43.8377 18.4473 30.2707C20.4613 19.1317 30.9703 12.8207 40.3913 16.0807C45.9023 17.9867 49.4383 20.9507 51.4163 23.0717C52.5103 24.2437 54.3443 24.2437 55.4383 23.0717C57.4173 20.9517 60.9533 17.9877 66.4633 16.0807C75.8843 12.8207 86.3933 19.1317 88.4083 30.2707C89.9763 38.9407 86.7533 48.4477 80.0893 56.6857C77.2223 55.5937 70.8553 51.8407 69.0003 54.7107C67.8783 56.4487 71.7033 57.6687 72.1793 59.0357C72.8843 61.0507 69.1843 64.0657 67.4953 64.8907Z" fill="url(#paint2_linear_1_28)"/>
<path opacity="0.48" d="M66.4473 83.4837C72.7323 82.4827 79.5123 75.7397 86.2233 73.3857C86.2033 73.3247 86.1753 73.2687 86.1303 73.2237C82.0293 69.1397 72.2493 79.3697 64.9183 78.8707C58.0453 78.4017 53.5163 77.1527 51.1733 73.7167C47.3663 68.1327 48.1423 60.8017 46.2983 61.4187C41.8643 59.9357 44.8653 71.3167 41.1073 69.0477C25.2333 59.4647 15.9943 43.8367 18.4473 30.2697C20.4613 19.1307 30.9703 12.8197 40.3913 16.0797C42.8513 16.9307 44.8973 17.9947 46.6073 19.0987C39.6423 13.9357 32.7333 9.59972 23.8543 11.8517C18.1003 13.3107 12.4933 19.4217 11.2273 25.2547C4.34531 56.9757 43.0663 87.2067 66.4473 83.4837Z" fill="url(#paint3_linear_1_28)"/>
<path opacity="0.48" d="M104.591 23.2657C103.341 5.45971 87.3493 -3.59229 73.1183 1.33071C68.3663 2.97471 64.5923 5.1387 61.6673 7.2897C61.7153 7.5977 73.7293 2.9657 80.8923 4.8507C95.0403 8.5737 98.2703 21.7527 96.2973 34.3357C94.5593 45.4217 82.1953 63.6387 67.7873 68.7767C64.8813 69.8127 58.0703 68.4417 55.4383 65.6747C54.7933 65.7797 54.3963 65.9377 54.3743 66.1787C54.0363 69.9007 61.3833 71.1727 63.3673 71.5757C71.6293 73.2537 78.2153 68.3467 87.8693 59.2677C97.8363 49.8967 105.477 35.8937 104.591 23.2657Z" fill="url(#paint4_linear_1_28)"/>
<defs>
<linearGradient id="paint0_linear_1_28" x1="44.5291" y1="53.0337" x2="64.2212" y2="33.3416" gradientUnits="userSpaceOnUse">
<stop stop-color="#0076C1"/>
<stop offset="0.2714" stop-color="#1897D9"/>
<stop offset="0.5593" stop-color="#2CB3EE"/>
<stop offset="0.8119" stop-color="#38C4FB"/>
<stop offset="1" stop-color="#3CCAFF"/>
</linearGradient>
<linearGradient id="paint1_linear_1_28" x1="44.5291" y1="53.0337" x2="64.2212" y2="33.3416" gradientUnits="userSpaceOnUse">
<stop stop-color="#0076C1"/>
<stop offset="0.2714" stop-color="#1897D9"/>
<stop offset="0.5593" stop-color="#2CB3EE"/>
<stop offset="0.8119" stop-color="#38C4FB"/>
<stop offset="1" stop-color="#3CCAFF"/>
</linearGradient>
<linearGradient id="paint2_linear_1_28" x1="12.3389" y1="75.9893" x2="90.4712" y2="-2.143" gradientUnits="userSpaceOnUse">
<stop stop-color="#0F7BCF"/>
<stop offset="1" stop-color="#229AD1"/>
</linearGradient>
<linearGradient id="paint3_linear_1_28" x1="18.6408" y1="77.5403" x2="90.6814" y2="5.49962" gradientUnits="userSpaceOnUse">
<stop stop-color="#0D9CFB"/>
<stop offset="1" stop-color="#2EAFF7"/>
</linearGradient>
<linearGradient id="paint4_linear_1_28" x1="22.2085" y1="85.8587" x2="100.341" y2="7.72669" gradientUnits="userSpaceOnUse">
<stop stop-color="#1284EF"/>
<stop offset="1" stop-color="#1058A0"/>
</linearGradient>
</defs>
</svg>
